#!OML:ASF H:\Not Pregnant\Project 1\Capture day 1\Session 1\non-pregnant.ASF
:FULLY-SPECIFIED
:DEGREES
328
root -5.72865 16.336 34.8836 170.132 -80.7573 -157.066
lowerback -13.0582 2.26064 1.97019
upperback -6.25845 2.44974 -0.407841
thorax 0.852097 1.0433 -1.20237
lowerneck 16.4708 -6.84756 -31.0041
upperneck -7.1658 -15.7044 42.9153
head 2.00599 -10.4664 23.3671
rclavicle -4.04527e-014 -2.46493e-014
rhumerus -36.8115 4.76569 -92.1202
rradius 24.5158
rwrist 25.9167
rhand -8.33924 4.29771
rfingers 7.12502
rthumb 17.5824 -24.9273
lclavicle -4.04527e-014 -2.46493e-014
lhumerus -42.6794 -11.7679 94.7324
lradius 31.4488
lwrist 37.3089
lhand -11.6688 -14.9469
lfingers 7.12502
lthumb 14.3762 14.5353
rfemur -8.96054 -6.51525 21.987
rtibia 4.94769
rfoot -11.7063 13.6157
rtoes -12.7913
lfemur -14.6391 4.68288 -16.0427
ltibia 13.2839
lfoot -13.5416 -7.76339
ltoes -19.84
329
root -5.72739 16.3352 34.8843 170.059 -80.7344 -157.019
lowerback -13.0632 2.23784 1.96708
upperback -6.23527 2.42067 -0.393008
thorax 0.877253 1.02998 -1.18864
lowerneck 16.4108 -6.86443 -31.0102
upperneck -7.09895 -15.729 42.8867
head 2.04308 -10.4701 23.3303
rclavicle 2.88238e-015 -1.43125e-014
rhumerus -36.755 4.82295 -92.1448
rradius 24.3829
rwrist 26.0893
rhand -8.32474 4.27704
rfingers 7.12502
rthumb 17.5964 -24.9467
lclavicle 2.88238e-015 -1.43125e-014
lhumerus -42.6234 -11.7467 94.7061
lradius 31.3852
lwrist 36.9476
lhand -11.9997 -14.9984
lfingers 7.12502
lthumb 14.0573 14.5062
rfemur -8.93982 -6.49468 21.9967
rtibia 4.95439
rfoot -11.7116 13.6133
rtoes -12.7944
lfemur -14.6182 4.67591 -16.0254
ltibia 13.3008
lfoot -13.5579 -7.72862
ltoes -19.9074
330
root -5.72599 16.3345 34.8849 169.998 -80.7116 -156.98
lowerback -13.0635 2.24903 1.97927
upperback -6.2177 2.43576 -0.418649
thorax 0.897922 1.03781 -1.21968
lowerneck 16.3981 -6.90259 -30.9489
upperneck -7.07222 -15.779 42.8798
head 2.06732 -10.4954 23.2887
rclavicle -9.83984e-015 -3.57812e-015
rhumerus -36.7221 4.846 -92.2254
rradius 24.2939
rwrist 26.1613
rhand -8.35904 4.16631
rfingers 7.12502
rthumb 17.5633 -25.0604
lclavicle -9.83984e-015 -3.57812e-015
lhumerus -42.5817 -11.8617 94.6927
lradius 31.3179
lwrist 36.517
lhand -12.3573 -15.056
lfingers 7.12502
lthumb 13.7127 14.4722
rfemur -8.92505 -6.47371 22.007
rtibia 4.96281
rfoot -11.7162 13.6093
rtoes -12.7992
lfemur -14.6043 4.69116 -16.0106
ltibia 13.3199
lfoot -13.5743 -7.72269
ltoes -19.9218
331
root -5.72446 16.3339 34.8851 169.967 -80.6877 -156.97
lowerback -13.0591 2.25861 1.97567
upperback -6.20601 2.45017 -0.436125
thorax 0.908946 1.04544 -1.23373
lowerneck 16.3903 -6.93909 -30.9085
upperneck -7.04083 -15.8342 42.8726
head 2.09652 -10.5234 23.253
rclavicle -1.63003e-014 -1.82882e-014
rhumerus -36.7186 4.96892 -92.3465
rradius 24.2505
rwrist 26.1138
rhand -8.40835 4.00269
rfingers 7.12502
rthumb 17.5159 -25.2282
lclavicle -1.63003e-014 -1.82882e-014
lhumerus -42.5574 -11.9817 94.704
lradius 31.2515
lwrist 36.0059
lhand -12.7628 -15.1225
lfingers 7.12502
lthumb 13.3218 14.4317
rfemur -8.91144 -6.4504 22.0148
rtibia 4.96939
rfoot -11.7203 13.6061
rtoes -12.8061
lfemur -14.5948 4.72339 -15.9999
ltibia 13.3435
lfoot -13.5924 -7.73573
ltoes -19.8909
332
root -5.7229 16.3332 34.8852 169.959 -80.6641 -156.982
lowerback -13.05 2.27674 1.96661
upperback -6.19875 2.47662 -0.459114
thorax 0.913273 1.05895 -1.24899
lowerneck 16.4011 -6.98506 -30.8618
upperneck -7.0163 -15.908 42.8704
head 2.12872 -10.5633 23.2167
rclavicle -8.99501e-015 1.39149e-014
rhumerus -36.7324 5.09914 -92.4743
rradius 24.2409
rwrist 26.0233
rhand -8.44036 3.85592
rfingers 7.12502
rthumb 17.4851 -25.3777
lclavicle -8.99501e-015 1.39149e-014
lhumerus -42.5281 -12.0864 94.7016
lradius 31.1908
lwrist 35.5846
lhand -13.098 -15.189
lfingers 7.12502
lthumb 12.9987 14.386
rfemur -8.8986 -6.42688 22.0183
rtibia 4.97567
rfoot -11.7236 13.6046
rtoes -12.8092
lfemur -14.5883 4.75045 -15.9926
ltibia 13.3726
lfoot -13.615 -7.74039
ltoes -19.8766
